<svg xmlns="http://www.w3.org/2000/svg" width="174.6906237582279" height="157.9112564086914" viewBox="0 0 350 316.381832945621" class="looka-1j8o68f"><defs id="SvgjsDefs1356"></defs><g id="SvgjsG1357" featurekey="xtWca3-0" transform="matrix(14.675051002577518,0,0,14.675051002577518,92.6729505450938,-61.89726389465358)" fill="#ffcd38"><path d="M10.38 5.24 l-0.2 0.2 l0 0 l0 10.6 c0 2.68 -2.08 4.04 -4.54 4.04 c-2.3 0 -4.6 -1.36 -4.6 -4.04 l0 -10.62 l-0.02 0.02 l-0.18 -0.2 l3.72 0 l-0.2 0.2 l0 -0.02 l0 10.62 c0 1.24 2.5 1.26 2.5 0 l0 -10.62 l0 0.02 l-0.2 -0.2 l3.72 0 z"></path></g><g id="SvgjsG1358" featurekey="dFhhLb-0" transform="matrix(3.1998524621597735,0,0,3.1998524621597735,-1.7918573077266735,251.87280932254728)" class="text" fill="currentcolor"><path d="M9.6 5.039999999999999 l0 1.44 c0 0.22666 -0.05334 0.41332 -0.16 0.55998 s-0.21332 0.26 -0.31998 0.34 c-0.05334 0.05334 -0.09668 0.10668 -0.13002 0.16002 s-0.05668 0.14 -0.07002 0.26 l0 9.34 c0 0.50666 -0.10666 0.95 -0.32 1.33 s-0.49334 0.69666 -0.84 0.95 s-0.74666 0.44 -1.2 0.56 s-0.92668 0.18 -1.42 0.18 s-0.97334 -0.06 -1.44 -0.18 s-0.88332 -0.30666 -1.25 -0.56 s-0.66 -0.57 -0.88 -0.95 s-0.33 -0.82334 -0.33 -1.33 l0 -9.32 c0 -0.12 -0.02 -0.21 -0.06 -0.27 s-0.09334 -0.11 -0.16 -0.15 c-0.10666 -0.06666 -0.21 -0.17666 -0.31 -0.33 s-0.15 -0.35668 -0.15 -0.61002 l0 -1.42 l4.04 0 l0 1.32 c0 0.22666 -0.05334 0.43332 -0.16 0.61998 s-0.21332 0.32 -0.31998 0.4 c-0.06666 0.05334 -0.11666 0.10668 -0.15 0.16002 s-0.05 0.14 -0.05 0.26 l0 8.64 c0 0.52 0.11 0.88334 0.33 1.09 s0.51666 0.31 0.89 0.31 s0.67 -0.10334 0.89 -0.31 s0.33 -0.57 0.33 -1.09 l0 -8.62 c0 -0.12 -0.03 -0.23 -0.09 -0.33 s-0.12334 -0.17666 -0.19 -0.23 c-0.10666 -0.06666 -0.2 -0.17332 -0.28 -0.31998 s-0.12 -0.34666 -0.12 -0.6 l0 -1.3 l3.92 0 z M19 17.9 c0.09334 0.06666 0.19336 0.16992 0.30002 0.30992 s0.16 0.33 0.16 0.57 l0 1.28 l-2.24 0 c-0.17334 0 -0.33334 -0.05 -0.48 -0.15 s-0.27332 -0.22334 -0.37998 -0.37 s-0.19 -0.30666 -0.25 -0.48 s-0.09 -0.33334 -0.09 -0.48 l0 -3.5 c0 -0.24 -0.03666 -0.43334 -0.11 -0.58 s-0.16 -0.26 -0.26 -0.34 s-0.21 -0.13334 -0.33 -0.16 s-0.22666 -0.04 -0.32 -0.04 l-0.44 0 c-0.22666 0.01334 -0.37 0.04 -0.43 0.08 s-0.09 0.12666 -0.09 0.26 l0 3.18 c0 0.12 0.05666 0.22666 0.17 0.32 s0.20334 0.17334 0.27 0.24 c0.10666 0.10666 0.17332 0.22 0.19998 0.34 s0.04 0.3 0.04 0.54 l0 1.14 l-4 0 l0 -1.08 c0 -0.22666 0.01666 -0.42332 0.05 -0.58998 s0.10334 -0.28332 0.21 -0.34998 c0.06666 -0.05334 0.13332 -0.13668 0.19998 -0.25002 s0.1 -0.22334 0.1 -0.33 l0 -9.56 c0 -0.10666 -0.0066602 -0.22666 -0.02 -0.36 s-0.04668 -0.21334 -0.10002 -0.24 c-0.10666 -0.06666 -0.20666 -0.17332 -0.3 -0.31998 s-0.14 -0.35332 -0.14 -0.61998 l0 -1.26 l4.96 0 c1 0 1.7567 0.31 2.27 0.93 s0.77 1.4233 0.77 2.41 l0 1.8 c0 0.42666 -0.05334 0.81666 -0.16 1.17 s-0.29332 0.64334 -0.55998 0.87 c-0.02666 0.01334 -0.04666 0.05 -0.06 0.11 s0.01332 0.11 0.07998 0.15 c0.29334 0.22666 0.48668 0.47 0.58002 0.73 s0.14 0.63666 0.14 1.13 l0 3.08 c0 0.12 0.02666 0.20666 0.08 0.26 s0.11334 0.10668 0.18 0.16002 z M16.08 8.7 c0 -0.46666 -0.06334 -0.79336 -0.19 -0.98002 s-0.40332 -0.28 -0.82998 -0.28 l-0.82 0 c-0.13334 0 -0.2 0.10666 -0.2 0.32 l0 3.6 c0 0.13334 0.02666 0.21668 0.08 0.25002 s0.17334 0.05 0.36 0.05 l0.46 0 c0.34666 0 0.62332 -0.06 0.82998 -0.18 s0.31 -0.41334 0.31 -0.88 l0 -1.9 z M28.06 12.36 c0.30666 0.21334 0.50998 0.52 0.60998 0.92 s0.15 0.84 0.15 1.32 l0 2.18 c0 0.98666 -0.28 1.77 -0.84 2.35 s-1.4067 0.87 -2.54 0.87 l-5.02 0 l0 -1.24 c0 -0.26666 0.03666 -0.47332 0.11 -0.61998 s0.17668 -0.25332 0.31002 -0.31998 c0.06666 -0.02666 0.12666 -0.07666 0.18 -0.15 s0.08 -0.17 0.08 -0.29 l0 -9.7 c0 -0.21334 -0.08 -0.35334 -0.24 -0.42 c-0.13334 -0.06666 -0.24 -0.17666 -0.32 -0.33 s-0.12 -0.37668 -0.12 -0.67002 l0 -1.22 l4.82 0 c1.1333 0 1.98 0.29666 2.54 0.89 s0.84 1.3833 0.84 2.37 l0 1.68 c0 0.41334 -0.03666 0.80334 -0.11 1.17 s-0.23668 0.66332 -0.49002 0.88998 c-0.06666 0.06666 -0.09332 0.12666 -0.07998 0.18 s0.05334 0.1 0.12 0.14 z M23.84 10.62 c0 0.18666 0.03998 0.3033 0.11998 0.34996 s0.19334 0.07666 0.34 0.09 l0.5 0 c0.30666 0 0.55666 -0.09334 0.75 -0.28 s0.29 -0.45332 0.29 -0.79998 l0 -1.3 c0 -0.44 -0.09334 -0.76334 -0.28 -0.97 s-0.45332 -0.31 -0.79998 -0.31 l-0.46 0 c-0.18666 0 -0.31 0.02666 -0.37 0.08 s-0.09 0.16668 -0.09 0.34002 l0 2.8 z M26.04 14.780000000000001 c0 -0.46666 -0.07336 -0.83666 -0.22002 -1.11 s-0.38666 -0.41 -0.72 -0.41 l-0.9 0 c-0.10666 0 -0.19332 0.03334 -0.25998 0.1 s-0.1 0.14666 -0.1 0.24 l0 3.78 c0 0.08 0.02666 0.15666 0.08 0.23 s0.12 0.11 0.2 0.11 l0.98 0 c0.34666 0 0.59 -0.12 0.73 -0.36 s0.21 -0.54 0.21 -0.9 l0 -1.68 z M39.08 17.72 c0.10666 0.06666 0.2067 0.1733 0.30004 0.31996 s0.14 0.33332 0.14 0.55998 l0 1.4 l-4 0 l0 -1.16 c0 -0.24 0.04666 -0.46 0.14 -0.66 s0.19334 -0.33334 0.3 -0.4 c0.06666 -0.05334 0.12332 -0.10668 0.16998 -0.16002 s0.07 -0.14 0.07 -0.26 c-0.01334 -0.10666 -0.02668 -0.20666 -0.04002 -0.3 c-0.01334 -0.08 -0.03 -0.16334 -0.05 -0.25 s-0.03666 -0.16332 -0.05 -0.22998 c-0.02666 -0.10666 -0.07332 -0.17666 -0.13998 -0.21 s-0.15332 -0.05 -0.25998 -0.05 l-1.88 0 c-0.12 0 -0.20334 0.01 -0.25 0.03 s-0.08332 0.09666 -0.10998 0.23 c-0.01334 0.06666 -0.02668 0.14332 -0.04002 0.22998 s-0.03334 0.17 -0.06 0.25 c-0.02666 0.09334 -0.04666 0.19334 -0.06 0.3 c0 0.12 0.01334 0.20666 0.04 0.26 s0.07332 0.10668 0.13998 0.16002 c0.10666 0.06666 0.20666 0.20332 0.3 0.40998 s0.14 0.43 0.14 0.67 l0 1.14 l-3.94 0 l0 -1.4 c0 -0.22666 0.05 -0.41332 0.15 -0.55998 s0.19666 -0.25332 0.29 -0.31998 c0.06666 -0.05334 0.12666 -0.11334 0.18 -0.18 s0.09334 -0.15332 0.12 -0.25998 c0.37334 -1.7733 0.71334 -3.3666 1.02 -4.78 c0.13334 -0.6 0.26 -1.1867 0.38 -1.76 s0.23 -1.0867 0.33 -1.54 s0.18 -0.82 0.24 -1.1 s0.09 -0.42666 0.09 -0.44 c0.02666 -0.10666 0.04 -0.20332 0.04 -0.28998 s-0.03334 -0.14332 -0.1 -0.16998 c-0.14666 -0.06666 -0.26666 -0.17666 -0.36 -0.33 s-0.14 -0.38334 -0.14 -0.69 l0 -1.14 l3.1 0 c0.30666 0 0.55 0.09334 0.73 0.28 s0.29 0.39332 0.33 0.61998 c0 0.05334 0.03666 0.25668 0.11 0.61002 s0.17 0.8 0.29 1.34 s0.25334 1.1467 0.4 1.82 s0.29332 1.3567 0.43998 2.05 c0.34666 1.6267 0.74666 3.4666 1.2 5.52 c0.04 0.17334 0.14 0.32 0.3 0.44 z M35.44 14.02 c0.09334 0 0.15338 -0.009961 0.18004 -0.029962 s0.03332 -0.07 0.01998 -0.15 c0 -0.02666 -0.02334 -0.16666 -0.07 -0.42 s-0.1 -0.56 -0.16 -0.92 s-0.12666 -0.75 -0.2 -1.17 s-0.14 -0.81 -0.2 -1.17 s-0.11334 -0.66 -0.16 -0.9 s-0.07 -0.36666 -0.07 -0.38 c0 -0.05334 -0.01666 -0.07668 -0.05 -0.07002 s-0.05668 0.02332 -0.07002 0.04998 c0 0.01334 -0.02 0.14334 -0.06 0.39 s-0.09334 0.55 -0.16 0.91 s-0.13666 0.74666 -0.21 1.16 s-0.14334 0.80334 -0.21 1.17 s-0.12332 0.67666 -0.16998 0.93 s-0.07 0.39334 -0.07 0.42 c-0.01334 0.08 -0.0066796 0.13 0.01998 0.15 s0.08666 0.03 0.18 0.03 l1.46 0 z M50.36000000000001 5.039999999999999 l0 1.3401 c0 0.21334 -0.05 0.39 -0.15 0.53 s-0.20334 0.25 -0.31 0.33 c-0.04 0.02666 -0.07666 0.06332 -0.11 0.10998 s-0.05668 0.11666 -0.07002 0.21 l0 11.86 c0 0.24 -0.04334 0.39666 -0.13 0.47 s-0.20332 0.11 -0.34998 0.11 l-1.22 0 c-0.37334 0 -0.63334 -0.16 -0.78 -0.48 c-0.04 -0.08 -0.14666 -0.32334 -0.32 -0.73 s-0.38 -0.89 -0.62 -1.45 s-0.49334 -1.1567 -0.76 -1.79 s-0.51332 -1.22 -0.73998 -1.76 s-0.42 -0.99334 -0.58 -1.36 s-0.24 -0.55666 -0.24 -0.57 s-0.0066602 -0.01334 -0.02 0 s-0.02 0.06 -0.02 0.14 l0 5.38 c0 0.12 0.02666 0.20666 0.08 0.26 s0.11334 0.1 0.18 0.14 c0.09334 0.06666 0.19 0.17332 0.29 0.31998 s0.15 0.33332 0.15 0.55998 l0 1.34 l-4.02 0 l0 -1.36 c0 -0.21334 0.05 -0.39 0.15 -0.53 s0.20334 -0.24334 0.31 -0.31 c0.04 -0.04 0.07666 -0.08 0.11 -0.12 s0.05668 -0.10666 0.07002 -0.2 l0 -10.02 c-0.13334 -0.04 -0.25334 -0.10666 -0.36 -0.2 c-0.09334 -0.08 -0.17668 -0.19334 -0.25002 -0.34 s-0.11 -0.33332 -0.11 -0.55998 l0 -1.32 l2.78 0 c0.16 0 0.3 0.08 0.42 0.24 s0.2 0.30666 0.24 0.44 c0.02666 0.09334 0.11332 0.32334 0.25998 0.69 s0.32666 0.80666 0.54 1.32 s0.44334 1.0633 0.69 1.65 s0.47666 1.14 0.69 1.66 s0.39668 0.97334 0.55002 1.36 s0.25 0.63332 0.29 0.73998 c0.01334 0.02666 0.02334 0.02666 0.03 0 s0.01 -0.06 0.01 -0.1 l0 -5.38 c0 -0.12 -0.02666 -0.21 -0.08 -0.27 s-0.11334 -0.11 -0.18 -0.15 c-0.09334 -0.06666 -0.18668 -0.17 -0.28002 -0.31 s-0.14 -0.33 -0.14 -0.57 l0 -1.32 l4 0 z M59.120000000000005 12.36 c0.30666 0.21334 0.50998 0.52 0.60998 0.92 s0.15 0.84 0.15 1.32 l0 2.18 c0 0.98666 -0.28 1.77 -0.84 2.35 s-1.4067 0.87 -2.54 0.87 l-5.02 0 l0 -1.24 c0 -0.26666 0.03666 -0.47332 0.11 -0.61998 s0.17668 -0.25332 0.31002 -0.31998 c0.06666 -0.02666 0.12666 -0.07666 0.18 -0.15 s0.08 -0.17 0.08 -0.29 l0 -9.7 c0 -0.21334 -0.08 -0.35334 -0.24 -0.42 c-0.13334 -0.06666 -0.24 -0.17666 -0.32 -0.33 s-0.12 -0.37668 -0.12 -0.67002 l0 -1.22 l4.82 0 c1.1333 0 1.98 0.29666 2.54 0.89 s0.84 1.3833 0.84 2.37 l0 1.68 c0 0.41334 -0.03666 0.80334 -0.11 1.17 s-0.23668 0.66332 -0.49002 0.88998 c-0.06666 0.06666 -0.09332 0.12666 -0.07998 0.18 s0.05334 0.1 0.12 0.14 z M54.9 10.62 c0 0.18666 0.03998 0.3033 0.11998 0.34996 s0.19334 0.07666 0.34 0.09 l0.5 0 c0.30666 0 0.55666 -0.09334 0.75 -0.28 s0.29 -0.45332 0.29 -0.79998 l0 -1.3 c0 -0.44 -0.09334 -0.76334 -0.28 -0.97 s-0.45332 -0.31 -0.79998 -0.31 l-0.46 0 c-0.18666 0 -0.31 0.02666 -0.37 0.08 s-0.09 0.16668 -0.09 0.34002 l0 2.8 z M57.1 14.780000000000001 c0 -0.46666 -0.07336 -0.83666 -0.22002 -1.11 s-0.38666 -0.41 -0.72 -0.41 l-0.9 0 c-0.10666 0 -0.19332 0.03334 -0.25998 0.1 s-0.1 0.14666 -0.1 0.24 l0 3.78 c0 0.08 0.02666 0.15666 0.08 0.23 s0.12 0.11 0.2 0.11 l0.98 0 c0.34666 0 0.59 -0.12 0.73 -0.36 s0.21 -0.54 0.21 -0.9 l0 -1.68 z M70.14 17.72 c0.10666 0.06666 0.2067 0.1733 0.30004 0.31996 s0.14 0.33332 0.14 0.55998 l0 1.4 l-4 0 l0 -1.16 c0 -0.24 0.04666 -0.46 0.14 -0.66 s0.19334 -0.33334 0.3 -0.4 c0.06666 -0.05334 0.12332 -0.10668 0.16998 -0.16002 s0.07 -0.14 0.07 -0.26 c-0.01334 -0.10666 -0.02668 -0.20666 -0.04002 -0.3 c-0.01334 -0.08 -0.03 -0.16334 -0.05 -0.25 s-0.03666 -0.16332 -0.05 -0.22998 c-0.02666 -0.10666 -0.07332 -0.17666 -0.13998 -0.21 s-0.15332 -0.05 -0.25998 -0.05 l-1.88 0 c-0.12 0 -0.20334 0.01 -0.25 0.03 s-0.08332 0.09666 -0.10998 0.23 c-0.01334 0.06666 -0.02668 0.14332 -0.04002 0.22998 s-0.03334 0.17 -0.06 0.25 c-0.02666 0.09334 -0.04666 0.19334 -0.06 0.3 c0 0.12 0.01334 0.20666 0.04 0.26 s0.07332 0.10668 0.13998 0.16002 c0.10666 0.06666 0.20666 0.20332 0.3 0.40998 s0.14 0.43 0.14 0.67 l0 1.14 l-3.94 0 l0 -1.4 c0 -0.22666 0.05 -0.41332 0.15 -0.55998 s0.19666 -0.25332 0.29 -0.31998 c0.06666 -0.05334 0.12666 -0.11334 0.18 -0.18 s0.09334 -0.15332 0.12 -0.25998 c0.37334 -1.7733 0.71334 -3.3666 1.02 -4.78 c0.13334 -0.6 0.26 -1.1867 0.38 -1.76 s0.23 -1.0867 0.33 -1.54 s0.18 -0.82 0.24 -1.1 s0.09 -0.42666 0.09 -0.44 c0.02666 -0.10666 0.04 -0.20332 0.04 -0.28998 s-0.03334 -0.14332 -0.1 -0.16998 c-0.14666 -0.06666 -0.26666 -0.17666 -0.36 -0.33 s-0.14 -0.38334 -0.14 -0.69 l0 -1.14 l3.1 0 c0.30666 0 0.55 0.09334 0.73 0.28 s0.29 0.39332 0.33 0.61998 c0 0.05334 0.03666 0.25668 0.11 0.61002 s0.17 0.8 0.29 1.34 s0.25334 1.1467 0.4 1.82 s0.29332 1.3567 0.43998 2.05 c0.34666 1.6267 0.74666 3.4666 1.2 5.52 c0.04 0.17334 0.14 0.32 0.3 0.44 z M66.5 14.02 c0.09334 0 0.15338 -0.009961 0.18004 -0.029962 s0.03332 -0.07 0.01998 -0.15 c0 -0.02666 -0.02334 -0.16666 -0.07 -0.42 s-0.1 -0.56 -0.16 -0.92 s-0.12666 -0.75 -0.2 -1.17 s-0.14 -0.81 -0.2 -1.17 s-0.11334 -0.66 -0.16 -0.9 s-0.07 -0.36666 -0.07 -0.38 c0 -0.05334 -0.01666 -0.07668 -0.05 -0.07002 s-0.05668 0.02332 -0.07002 0.04998 c0 0.01334 -0.02 0.14334 -0.06 0.39 s-0.09334 0.55 -0.16 0.91 s-0.13666 0.74666 -0.21 1.16 s-0.14334 0.80334 -0.21 1.17 s-0.12332 0.67666 -0.16998 0.93 s-0.07 0.39334 -0.07 0.42 c-0.01334 0.08 -0.0066796 0.13 0.01998 0.15 s0.08666 0.03 0.18 0.03 l1.46 0 z M79.07999999999998 16.54 l0.000019531 2.96 c0 0.16 -0.04334 0.28 -0.13 0.36 s-0.20332 0.12 -0.34998 0.12 l-6.5 0 c-0.14666 0 -0.26666 -0.05 -0.36 -0.15 s-0.14 -0.21666 -0.14 -0.35 l0 -1.88 c0 -0.14666 0.0066602 -0.24 0.02 -0.28 s0.02668 -0.07334 0.04002 -0.1 c0.8 -1.72 1.52 -3.26 2.16 -4.62 c0.26666 -0.57334 0.53 -1.14 0.79 -1.7 s0.49666 -1.0633 0.71 -1.51 s0.38334 -0.81 0.51 -1.09 s0.19666 -0.43334 0.21 -0.46 c0.02666 -0.08 0.01332 -0.15 -0.04002 -0.21 s-0.14668 -0.09 -0.28002 -0.09 l-1.36 0 c-0.12 0 -0.22334 0.02 -0.31 0.06 s-0.13 0.11334 -0.13 0.22 l0 0.68 l-0.98 0 c-0.34666 0 -0.61666 -0.10334 -0.81 -0.31 s-0.29 -0.46332 -0.29 -0.76998 l0 -1.9 c0 -0.32 0.14666 -0.48 0.44 -0.48 l1.32 0 l4.72 0 c0.16 0 0.29 0.04666 0.39 0.14 s0.15 0.22 0.15 0.38 l0 1.86 c0 0.06666 -0.0033398 0.12332 -0.01 0.16998 s-0.01666 0.09 -0.03 0.13 c-0.01334 0.05334 -0.02 0.09334 -0.02 0.12 c-0.74666 1.7067 -1.42 3.2334 -2.02 4.58 c-0.25334 0.57334 -0.50334 1.1367 -0.75 1.69 s-0.46666 1.05 -0.66 1.49 s-0.35334 0.8 -0.48 1.08 s-0.19 0.42666 -0.19 0.44 c-0.02666 0.09334 -0.02666 0.18668 0 0.28002 s0.09332 0.14 0.19998 0.14 l2.08 0 c0 -0.26666 0.07334 -0.5 0.22 -0.7 s0.42666 -0.3 0.84 -0.3 l1.04 0 z M89.23999999999998 17.72 c0.10666 0.06666 0.2067 0.1733 0.30004 0.31996 s0.14 0.33332 0.14 0.55998 l0 1.4 l-4 0 l0 -1.16 c0 -0.24 0.04666 -0.46 0.14 -0.66 s0.19334 -0.33334 0.3 -0.4 c0.06666 -0.05334 0.12332 -0.10668 0.16998 -0.16002 s0.07 -0.14 0.07 -0.26 c-0.01334 -0.10666 -0.02668 -0.20666 -0.04002 -0.3 c-0.01334 -0.08 -0.03 -0.16334 -0.05 -0.25 s-0.03666 -0.16332 -0.05 -0.22998 c-0.02666 -0.10666 -0.07332 -0.17666 -0.13998 -0.21 s-0.15332 -0.05 -0.25998 -0.05 l-1.88 0 c-0.12 0 -0.20334 0.01 -0.25 0.03 s-0.08332 0.09666 -0.10998 0.23 c-0.01334 0.06666 -0.02668 0.14332 -0.04002 0.22998 s-0.03334 0.17 -0.06 0.25 c-0.02666 0.09334 -0.04666 0.19334 -0.06 0.3 c0 0.12 0.01334 0.20666 0.04 0.26 s0.07332 0.10668 0.13998 0.16002 c0.10666 0.06666 0.20666 0.20332 0.3 0.40998 s0.14 0.43 0.14 0.67 l0 1.14 l-3.94 0 l0 -1.4 c0 -0.22666 0.05 -0.41332 0.15 -0.55998 s0.19666 -0.25332 0.29 -0.31998 c0.06666 -0.05334 0.12666 -0.11334 0.18 -0.18 s0.09334 -0.15332 0.12 -0.25998 c0.37334 -1.7733 0.71334 -3.3666 1.02 -4.78 c0.13334 -0.6 0.26 -1.1867 0.38 -1.76 s0.23 -1.0867 0.33 -1.54 s0.18 -0.82 0.24 -1.1 s0.09 -0.42666 0.09 -0.44 c0.02666 -0.10666 0.04 -0.20332 0.04 -0.28998 s-0.03334 -0.14332 -0.1 -0.16998 c-0.14666 -0.06666 -0.26666 -0.17666 -0.36 -0.33 s-0.14 -0.38334 -0.14 -0.69 l0 -1.14 l3.1 0 c0.30666 0 0.55 0.09334 0.73 0.28 s0.29 0.39332 0.33 0.61998 c0 0.05334 0.03666 0.25668 0.11 0.61002 s0.17 0.8 0.29 1.34 s0.25334 1.1467 0.4 1.82 s0.29332 1.3567 0.43998 2.05 c0.34666 1.6267 0.74666 3.4666 1.2 5.52 c0.04 0.17334 0.14 0.32 0.3 0.44 z M85.59999999999998 14.02 c0.09334 0 0.15338 -0.009961 0.18004 -0.029962 s0.03332 -0.07 0.01998 -0.15 c0 -0.02666 -0.02334 -0.16666 -0.07 -0.42 s-0.1 -0.56 -0.16 -0.92 s-0.12666 -0.75 -0.2 -1.17 s-0.14 -0.81 -0.2 -1.17 s-0.11334 -0.66 -0.16 -0.9 s-0.07 -0.36666 -0.07 -0.38 c0 -0.05334 -0.01666 -0.07668 -0.05 -0.07002 s-0.05668 0.02332 -0.07002 0.04998 c0 0.01334 -0.02 0.14334 -0.06 0.39 s-0.09334 0.55 -0.16 0.91 s-0.13666 0.74666 -0.21 1.16 s-0.14334 0.80334 -0.21 1.17 s-0.12332 0.67666 -0.16998 0.93 s-0.07 0.39334 -0.07 0.42 c-0.01334 0.08 -0.0066796 0.13 0.01998 0.15 s0.08666 0.03 0.18 0.03 l1.46 0 z M99.73999999999998 17.72 c0.10666 0.06666 0.2067 0.1733 0.30004 0.31996 s0.14 0.33332 0.14 0.55998 l0 1.4 l-4 0 l0 -1.16 c0 -0.24 0.04666 -0.46 0.14 -0.66 s0.19334 -0.33334 0.3 -0.4 c0.06666 -0.05334 0.12332 -0.10668 0.16998 -0.16002 s0.07 -0.14 0.07 -0.26 c-0.01334 -0.10666 -0.02668 -0.20666 -0.04002 -0.3 c-0.01334 -0.08 -0.03 -0.16334 -0.05 -0.25 s-0.03666 -0.16332 -0.05 -0.22998 c-0.02666 -0.10666 -0.07332 -0.17666 -0.13998 -0.21 s-0.15332 -0.05 -0.25998 -0.05 l-1.88 0 c-0.12 0 -0.20334 0.01 -0.25 0.03 s-0.08332 0.09666 -0.10998 0.23 c-0.01334 0.06666 -0.02668 0.14332 -0.04002 0.22998 s-0.03334 0.17 -0.06 0.25 c-0.02666 0.09334 -0.04666 0.19334 -0.06 0.3 c0 0.12 0.01334 0.20666 0.04 0.26 s0.07332 0.10668 0.13998 0.16002 c0.10666 0.06666 0.20666 0.20332 0.3 0.40998 s0.14 0.43 0.14 0.67 l0 1.14 l-3.94 0 l0 -1.4 c0 -0.22666 0.05 -0.41332 0.15 -0.55998 s0.19666 -0.25332 0.29 -0.31998 c0.06666 -0.05334 0.12666 -0.11334 0.18 -0.18 s0.09334 -0.15332 0.12 -0.25998 c0.37334 -1.7733 0.71334 -3.3666 1.02 -4.78 c0.13334 -0.6 0.26 -1.1867 0.38 -1.76 s0.23 -1.0867 0.33 -1.54 s0.18 -0.82 0.24 -1.1 s0.09 -0.42666 0.09 -0.44 c0.02666 -0.10666 0.04 -0.20332 0.04 -0.28998 s-0.03334 -0.14332 -0.1 -0.16998 c-0.14666 -0.06666 -0.26666 -0.17666 -0.36 -0.33 s-0.14 -0.38334 -0.14 -0.69 l0 -1.14 l3.1 0 c0.30666 0 0.55 0.09334 0.73 0.28 s0.29 0.39332 0.33 0.61998 c0 0.05334 0.03666 0.25668 0.11 0.61002 s0.17 0.8 0.29 1.34 s0.25334 1.1467 0.4 1.82 s0.29332 1.3567 0.43998 2.05 c0.34666 1.6267 0.74666 3.4666 1.2 5.52 c0.04 0.17334 0.14 0.32 0.3 0.44 z M96.09999999999998 14.02 c0.09334 0 0.15338 -0.009961 0.18004 -0.029962 s0.03332 -0.07 0.01998 -0.15 c0 -0.02666 -0.02334 -0.16666 -0.07 -0.42 s-0.1 -0.56 -0.16 -0.92 s-0.12666 -0.75 -0.2 -1.17 s-0.14 -0.81 -0.2 -1.17 s-0.11334 -0.66 -0.16 -0.9 s-0.07 -0.36666 -0.07 -0.38 c0 -0.05334 -0.01666 -0.07668 -0.05 -0.07002 s-0.05668 0.02332 -0.07002 0.04998 c0 0.01334 -0.02 0.14334 -0.06 0.39 s-0.09334 0.55 -0.16 0.91 s-0.13666 0.74666 -0.21 1.16 s-0.14334 0.80334 -0.21 1.17 s-0.12332 0.67666 -0.16998 0.93 s-0.07 0.39334 -0.07 0.42 c-0.01334 0.08 -0.0066796 0.13 0.01998 0.15 s0.08666 0.03 0.18 0.03 l1.46 0 z M109.47999999999999 17.9 c0.09334 0.06666 0.19336 0.16992 0.30002 0.30992 s0.16 0.33 0.16 0.57 l0 1.28 l-2.24 0 c-0.17334 0 -0.33334 -0.05 -0.48 -0.15 s-0.27332 -0.22334 -0.37998 -0.37 s-0.19 -0.30666 -0.25 -0.48 s-0.09 -0.33334 -0.09 -0.48 l0 -3.5 c0 -0.24 -0.03666 -0.43334 -0.11 -0.58 s-0.16 -0.26 -0.26 -0.34 s-0.21 -0.13334 -0.33 -0.16 s-0.22666 -0.04 -0.32 -0.04 l-0.44 0 c-0.22666 0.01334 -0.37 0.04 -0.43 0.08 s-0.09 0.12666 -0.09 0.26 l0 3.18 c0 0.12 0.05666 0.22666 0.17 0.32 s0.20334 0.17334 0.27 0.24 c0.10666 0.10666 0.17332 0.22 0.19998 0.34 s0.04 0.3 0.04 0.54 l0 1.14 l-4 0 l0 -1.08 c0 -0.22666 0.01666 -0.42332 0.05 -0.58998 s0.10334 -0.28332 0.21 -0.34998 c0.06666 -0.05334 0.13332 -0.13668 0.19998 -0.25002 s0.1 -0.22334 0.1 -0.33 l0 -9.56 c0 -0.10666 -0.0066602 -0.22666 -0.02 -0.36 s-0.04668 -0.21334 -0.10002 -0.24 c-0.10666 -0.06666 -0.20666 -0.17332 -0.3 -0.31998 s-0.14 -0.35332 -0.14 -0.61998 l0 -1.26 l4.96 0 c1 0 1.7567 0.31 2.27 0.93 s0.77 1.4233 0.77 2.41 l0 1.8 c0 0.42666 -0.05334 0.81666 -0.16 1.17 s-0.29332 0.64334 -0.55998 0.87 c-0.02666 0.01334 -0.04666 0.05 -0.06 0.11 s0.01332 0.11 0.07998 0.15 c0.29334 0.22666 0.48668 0.47 0.58002 0.73 s0.14 0.63666 0.14 1.13 l0 3.08 c0 0.12 0.02666 0.20666 0.08 0.26 s0.11334 0.10668 0.18 0.16002 z M106.55999999999999 8.7 c0 -0.46666 -0.06334 -0.79336 -0.19 -0.98002 s-0.40332 -0.28 -0.82998 -0.28 l-0.82 0 c-0.13334 0 -0.2 0.10666 -0.2 0.32 l0 3.6 c0 0.13334 0.02666 0.21668 0.08 0.25002 s0.17334 0.05 0.36 0.05 l0.46 0 c0.34666 0 0.62332 -0.06 0.82998 -0.18 s0.31 -0.41334 0.31 -0.88 l0 -1.9 z"></path></g></svg>